<svg width="184" height="44" viewBox="0 0 184 44" fill="none" xmlns="http://www.w3.org/2000/svg">
<path d="M54.0696 14.4545V29H51.4347V14.4545H54.0696ZM56.9229 14.4545H60.1474L64.4656 24.9943H64.636L68.9542 14.4545H72.1786V29H69.6502V19.0071H69.5153L65.4954 28.9574H63.6062L59.5863 18.9858H59.4513V29H56.9229V14.4545ZM78.0735 29.2202C77.3822 29.2202 76.7596 29.0971 76.2056 28.8509C75.6564 28.5999 75.2208 28.2306 74.8988 27.7429C74.5816 27.2552 74.4229 26.6539 74.4229 25.9389C74.4229 25.3234 74.5366 24.8144 74.7638 24.4119C74.9911 24.0095 75.3013 23.6875 75.6942 23.446C76.0872 23.2045 76.5299 23.0223 77.0224 22.8991C77.5195 22.7713 78.0333 22.679 78.5636 22.6222C79.2028 22.5559 79.7212 22.4967 80.119 22.4446C80.5167 22.3878 80.8055 22.3026 80.9854 22.1889C81.1701 22.0705 81.2624 21.8883 81.2624 21.642V21.5994C81.2624 21.0644 81.1038 20.6501 80.7866 20.3565C80.4693 20.063 80.0124 19.9162 79.4158 19.9162C78.7861 19.9162 78.2866 20.0535 77.9173 20.3281C77.5527 20.6027 77.3065 20.9271 77.1786 21.3011L74.7781 20.9602C74.9674 20.2973 75.2799 19.7434 75.7156 19.2983C76.1512 18.8485 76.6838 18.5123 77.3136 18.2898C77.9433 18.0625 78.6393 17.9489 79.4016 17.9489C79.9272 17.9489 80.4504 18.0104 80.9712 18.1335C81.4921 18.2566 81.9679 18.4602 82.3988 18.7443C82.8297 19.0237 83.1753 19.4048 83.4357 19.8878C83.7009 20.3707 83.8335 20.9744 83.8335 21.6989V29H81.3619V27.5014H81.2766C81.1204 27.8045 80.9002 28.0885 80.6161 28.3537C80.3368 28.6141 79.984 28.8248 79.5579 28.9858C79.1365 29.142 78.6417 29.2202 78.0735 29.2202ZM78.7411 27.331C79.2572 27.331 79.7047 27.2292 80.0835 27.0256C80.4622 26.8172 80.7534 26.5426 80.957 26.2017C81.1654 25.8608 81.2695 25.4891 81.2695 25.0866V23.8011C81.189 23.8674 81.0517 23.929 80.8576 23.9858C80.6682 24.0426 80.4551 24.0923 80.2184 24.1349C79.9817 24.1776 79.7473 24.2154 79.5153 24.2486C79.2833 24.2817 79.082 24.3101 78.9116 24.3338C78.5281 24.3859 78.1848 24.4711 77.8817 24.5895C77.5787 24.7079 77.3396 24.8736 77.1644 25.0866C76.9892 25.295 76.9016 25.5649 76.9016 25.8963C76.9016 26.3698 77.0745 26.7273 77.4201 26.9688C77.7657 27.2102 78.2061 27.331 78.7411 27.331ZM88.9897 22.608V29H86.4187V18.0909H88.8761V19.9446H89.0039C89.2549 19.3338 89.6549 18.8485 90.2042 18.4886C90.7582 18.1288 91.4424 17.9489 92.2567 17.9489C93.0096 17.9489 93.6654 18.1098 94.2241 18.4318C94.7875 18.7538 95.2231 19.2202 95.5309 19.831C95.8434 20.4418 95.9973 21.1828 95.9925 22.054V29H93.4215V22.4517C93.4215 21.7225 93.2321 21.152 92.8533 20.7401C92.4793 20.3281 91.9608 20.1222 91.2979 20.1222C90.8481 20.1222 90.448 20.2216 90.0977 20.4205C89.752 20.6146 89.4798 20.8963 89.2809 21.2656C89.0868 21.6349 88.9897 22.0824 88.9897 22.608ZM101.745 29.2202C101.054 29.2202 100.431 29.0971 99.8775 28.8509C99.3282 28.5999 98.8926 28.2306 98.5707 27.7429C98.2534 27.2552 98.0948 26.6539 98.0948 25.9389C98.0948 25.3234 98.2085 24.8144 98.4357 24.4119C98.663 24.0095 98.9731 23.6875 99.3661 23.446C99.7591 23.2045 100.202 23.0223 100.694 22.8991C101.191 22.7713 101.705 22.679 102.235 22.6222C102.875 22.5559 103.393 22.4967 103.791 22.4446C104.189 22.3878 104.477 22.3026 104.657 22.1889C104.842 22.0705 104.934 21.8883 104.934 21.642V21.5994C104.934 21.0644 104.776 20.6501 104.458 20.3565C104.141 20.063 103.684 19.9162 103.088 19.9162C102.458 19.9162 101.958 20.0535 101.589 20.3281C101.225 20.6027 100.978 20.9271 100.85 21.3011L98.4499 20.9602C98.6393 20.2973 98.9518 19.7434 99.3874 19.2983C99.823 18.8485 100.356 18.5123 100.985 18.2898C101.615 18.0625 102.311 17.9489 103.074 17.9489C103.599 17.9489 104.122 18.0104 104.643 18.1335C105.164 18.2566 105.64 18.4602 106.071 18.7443C106.502 19.0237 106.847 19.4048 107.108 19.8878C107.373 20.3707 107.505 20.9744 107.505 21.6989V29H105.034V27.5014H104.949C104.792 27.8045 104.572 28.0885 104.288 28.3537C104.009 28.6141 103.656 28.8248 103.23 28.9858C102.808 29.142 102.314 29.2202 101.745 29.2202ZM102.413 27.331C102.929 27.331 103.377 27.2292 103.755 27.0256C104.134 26.8172 104.425 26.5426 104.629 26.2017C104.837 25.8608 104.941 25.4891 104.941 25.0866V23.8011C104.861 23.8674 104.724 23.929 104.529 23.9858C104.34 24.0426 104.127 24.0923 103.89 24.1349C103.654 24.1776 103.419 24.2154 103.187 24.2486C102.955 24.2817 102.754 24.3101 102.583 24.3338C102.2 24.3859 101.857 24.4711 101.554 24.5895C101.251 24.7079 101.011 24.8736 100.836 25.0866C100.661 25.295 100.574 25.5649 100.574 25.8963C100.574 26.3698 100.746 26.7273 101.092 26.9688C101.438 27.2102 101.878 27.331 102.413 27.331ZM114.835 33.3182C113.912 33.3182 113.118 33.1927 112.456 32.9418C111.793 32.6955 111.26 32.3641 110.858 31.9474C110.455 31.5308 110.176 31.0691 110.02 30.5625L112.335 30.0014C112.439 30.2145 112.591 30.4252 112.789 30.6335C112.988 30.8466 113.256 31.0218 113.592 31.1591C113.933 31.3011 114.361 31.3722 114.877 31.3722C115.607 31.3722 116.21 31.1946 116.689 30.8395C117.167 30.4891 117.406 29.9115 117.406 29.1065V27.0398H117.278C117.145 27.3049 116.951 27.5772 116.696 27.8565C116.445 28.1359 116.111 28.3703 115.694 28.5597C115.282 28.7491 114.764 28.8438 114.139 28.8438C113.301 28.8438 112.541 28.6473 111.859 28.2543C111.182 27.8565 110.642 27.2647 110.24 26.4787C109.842 25.688 109.643 24.6984 109.643 23.5099C109.643 22.312 109.842 21.3011 110.24 20.4773C110.642 19.6487 111.184 19.0213 111.866 18.5952C112.548 18.1643 113.308 17.9489 114.146 17.9489C114.785 17.9489 115.311 18.0578 115.723 18.2756C116.139 18.4886 116.471 18.7467 116.717 19.0497C116.963 19.348 117.15 19.6297 117.278 19.8949H117.42V18.0909H119.956V29.1776C119.956 30.1103 119.733 30.8821 119.288 31.4929C118.843 32.1037 118.234 32.5606 117.463 32.8636C116.691 33.1667 115.815 33.3182 114.835 33.3182ZM114.856 26.8267C115.401 26.8267 115.865 26.6941 116.248 26.429C116.632 26.1638 116.923 25.7827 117.122 25.2855C117.321 24.7884 117.42 24.1918 117.42 23.4957C117.42 22.8092 117.321 22.2079 117.122 21.6918C116.928 21.1757 116.639 20.7756 116.255 20.4915C115.877 20.2027 115.41 20.0582 114.856 20.0582C114.283 20.0582 113.805 20.2074 113.422 20.5057C113.038 20.804 112.749 21.2135 112.555 21.7344C112.361 22.2505 112.264 22.8376 112.264 23.4957C112.264 24.1634 112.361 24.7481 112.555 25.25C112.754 25.7472 113.045 26.1354 113.429 26.4148C113.817 26.6894 114.293 26.8267 114.856 26.8267ZM127.42 29.2131C126.326 29.2131 125.382 28.9858 124.586 28.5312C123.796 28.072 123.187 27.4233 122.761 26.5852C122.335 25.7424 122.122 24.7505 122.122 23.6094C122.122 22.4872 122.335 21.5024 122.761 20.6548C123.192 19.8026 123.793 19.1397 124.565 18.6662C125.337 18.188 126.243 17.9489 127.285 17.9489C127.958 17.9489 128.592 18.0578 129.189 18.2756C129.79 18.4886 130.32 18.8201 130.779 19.2699C131.243 19.7197 131.608 20.2926 131.873 20.9886C132.138 21.6799 132.271 22.5038 132.271 23.4602V24.2486H123.329V22.5156H129.806C129.802 22.0232 129.695 21.5852 129.487 21.2017C129.279 20.8134 128.987 20.508 128.613 20.2855C128.244 20.063 127.813 19.9517 127.321 19.9517C126.795 19.9517 126.333 20.0795 125.936 20.3352C125.538 20.5862 125.228 20.9176 125.005 21.3295C124.788 21.7367 124.676 22.1842 124.672 22.6719V24.1847C124.672 24.8191 124.788 25.3636 125.02 25.8182C125.252 26.268 125.576 26.6136 125.993 26.8551C126.409 27.0919 126.897 27.2102 127.456 27.2102C127.83 27.2102 128.168 27.1581 128.471 27.054C128.774 26.9451 129.037 26.7865 129.26 26.5781C129.482 26.3698 129.65 26.1117 129.764 25.804L132.164 26.0739C132.013 26.7083 131.724 27.2623 131.298 27.7358C130.877 28.2045 130.337 28.5691 129.679 28.8295C129.02 29.0852 128.268 29.2131 127.42 29.2131ZM134.446 29V18.0909H136.903V19.9446H137.031C137.259 19.3196 137.635 18.8319 138.161 18.4815C138.686 18.1264 139.313 17.9489 140.043 17.9489C140.781 17.9489 141.404 18.1288 141.911 18.4886C142.422 18.8437 142.782 19.3291 142.99 19.9446H143.104C143.345 19.3385 143.752 18.8556 144.325 18.4957C144.903 18.1312 145.587 17.9489 146.378 17.9489C147.382 17.9489 148.201 18.2661 148.835 18.9006C149.47 19.535 149.787 20.4607 149.787 21.6776V29H147.209V22.0753C147.209 21.3982 147.029 20.9034 146.669 20.5909C146.309 20.2737 145.869 20.1151 145.348 20.1151C144.728 20.1151 144.242 20.3092 143.892 20.6974C143.546 21.081 143.374 21.5805 143.374 22.196V29H140.852V21.9688C140.852 21.4053 140.682 20.9555 140.341 20.6193C140.005 20.2831 139.564 20.1151 139.02 20.1151C138.651 20.1151 138.314 20.2098 138.011 20.3991C137.708 20.5838 137.467 20.8466 137.287 21.1875C137.107 21.5237 137.017 21.9167 137.017 22.3665V29H134.446ZM157.225 29.2131C156.131 29.2131 155.186 28.9858 154.391 28.5312C153.6 28.072 152.992 27.4233 152.566 26.5852C152.14 25.7424 151.926 24.7505 151.926 23.6094C151.926 22.4872 152.14 21.5024 152.566 20.6548C152.997 19.8026 153.598 19.1397 154.37 18.6662C155.141 18.188 156.048 17.9489 157.09 17.9489C157.762 17.9489 158.397 18.0578 158.993 18.2756C159.595 18.4886 160.125 18.8201 160.584 19.2699C161.048 19.7197 161.413 20.2926 161.678 20.9886C161.943 21.6799 162.076 22.5038 162.076 23.4602V24.2486H153.134V22.5156H159.611C159.606 22.0232 159.5 21.5852 159.292 21.2017C159.083 20.8134 158.792 20.508 158.418 20.2855C158.049 20.063 157.618 19.9517 157.125 19.9517C156.6 19.9517 156.138 20.0795 155.74 20.3352C155.343 20.5862 155.033 20.9176 154.81 21.3295C154.592 21.7367 154.481 22.1842 154.476 22.6719V24.1847C154.476 24.8191 154.592 25.3636 154.824 25.8182C155.056 26.268 155.381 26.6136 155.797 26.8551C156.214 27.0919 156.702 27.2102 157.26 27.2102C157.634 27.2102 157.973 27.1581 158.276 27.054C158.579 26.9451 158.842 26.7865 159.064 26.5781C159.287 26.3698 159.455 26.1117 159.569 25.804L161.969 26.0739C161.818 26.7083 161.529 27.2623 161.103 27.7358C160.681 28.2045 160.141 28.5691 159.483 28.8295C158.825 29.0852 158.072 29.2131 157.225 29.2131ZM166.822 22.608V29H164.251V18.0909H166.708V19.9446H166.836C167.087 19.3338 167.487 18.8485 168.036 18.4886C168.59 18.1288 169.274 17.9489 170.089 17.9489C170.842 17.9489 171.497 18.1098 172.056 18.4318C172.62 18.7538 173.055 19.2202 173.363 19.831C173.675 20.4418 173.829 21.1828 173.825 22.054V29H171.254V22.4517C171.254 21.7225 171.064 21.152 170.685 20.7401C170.311 20.3281 169.793 20.1222 169.13 20.1222C168.68 20.1222 168.28 20.2216 167.93 20.4205C167.584 20.6146 167.312 20.8963 167.113 21.2656C166.919 21.6349 166.822 22.0824 166.822 22.608ZM181.886 18.0909V20.0795H175.614V18.0909H181.886ZM177.163 15.4773H179.734V25.7188C179.734 26.0644 179.786 26.3295 179.89 26.5142C179.999 26.6941 180.141 26.8172 180.316 26.8835C180.491 26.9498 180.685 26.983 180.898 26.983C181.059 26.983 181.206 26.9711 181.339 26.9474C181.476 26.9238 181.58 26.9025 181.651 26.8835L182.085 28.8935C181.947 28.9408 181.751 28.9929 181.495 29.0497C181.244 29.1065 180.936 29.1397 180.572 29.1491C179.928 29.1681 179.348 29.071 178.832 28.858C178.316 28.6402 177.906 28.304 177.603 27.8494C177.305 27.3949 177.158 26.8267 177.163 26.1449V15.4773Z" fill="white"/>
<path d="M22.835 0H19.0291C8.51963 0 0 8.9543 0 20V24C0 35.0457 8.51963 44 19.0291 44H22.835C33.3444 44 41.8641 35.0457 41.8641 24V20C41.8641 8.9543 33.3444 0 22.835 0Z" fill="#EB6753"/>
<mask id="mask0_1_29" style="mask-type:luminance" maskUnits="userSpaceOnUse" x="9" y="10" width="24" height="24">
<path d="M32.3495 10H9.51456V34H32.3495V10Z" fill="white"/>
</mask>
<g mask="url(#mask0_1_29)">
<path d="M31.1806 22.1168L30.1119 21.1411V30.3498C30.1119 31.8994 28.9124 33.1599 27.4382 33.1599H24.2262C24.4958 32.8695 24.7815 32.5469 25.069 32.1981C25.3209 31.8925 25.5557 31.5885 25.7742 31.2866H27.438C27.9294 31.2866 28.3293 30.8663 28.3293 30.3498V19.5142L20.932 12.7625L13.5346 19.5142V30.3498C13.5346 30.8663 13.9345 31.2866 14.4259 31.2866H16.0899C16.3081 31.5883 16.543 31.8925 16.7951 32.1981C17.0825 32.5467 17.3683 32.8695 17.6378 33.1599H14.4259C12.9517 33.1599 11.7522 31.8994 11.7522 30.3498V21.1411L10.6832 22.1168L9.51456 20.7023L20.932 10.2812L32.3495 20.7023L31.1806 22.1168ZM20.932 24.2099C20.1937 24.2099 19.595 24.8389 19.595 25.6149C19.595 26.3909 20.1937 27.02 20.932 27.02C21.6704 27.02 22.269 26.3909 22.269 25.6149C22.269 24.8389 21.6704 24.2099 20.932 24.2099ZM26.0555 25.899C26.0555 27.3862 25.2704 29.0926 23.7218 30.9713C22.6254 32.3013 21.5402 33.2343 21.4945 33.2733L20.932 33.7546L20.3693 33.2733C20.3237 33.2343 19.2384 32.3013 18.1421 30.9713C16.5935 29.0926 15.8083 27.3862 15.8083 25.899V25.6185C15.8083 22.6491 18.1068 20.2334 20.932 20.2334C23.7571 20.2334 26.0555 22.6491 26.0555 25.6185V25.899ZM24.2732 25.6185C24.2732 23.6822 22.7742 22.1068 20.932 22.1068C19.0897 22.1068 17.5909 23.6822 17.5909 25.6185V25.8992C17.5909 26.8937 18.2651 28.2595 19.4893 29.7446C20.0202 30.3886 20.552 30.9333 20.9345 31.3032C22.2102 30.0737 24.273 27.7052 24.273 25.8992L24.2732 25.6185Z" fill="white"/>
</g>
</svg>
